<?xml version="1.0" standalone="no"?>
<!DOCTYPE svg PUBLIC "-//W3C//DTD SVG 20010904//EN"
 "http://www.w3.org/TR/2001/REC-SVG-20010904/DTD/svg10.dtd">
<svg version="1.0" xmlns="http://www.w3.org/2000/svg"
 width="300.000000pt" height="300.000000pt" viewBox="0 0 300.000000 300.000000"
 preserveAspectRatio="xMidYMid meet">
<metadata>
Created by potrace 1.10, written by Peter Selinger 2001-2011
</metadata>
<g transform="translate(0.000000,300.000000) scale(0.100000,-0.100000)"
fill="#000000" stroke="none">
<path d="M1465 2443 c-31 -8 -85 -64 -85 -90 0 -13 -7 -26 -15 -29 -8 -4 -15
-12 -15 -19 0 -10 -30 -66 -100 -185 -5 -8 -22 -40 -37 -70 -15 -30 -31 -56
-35 -58 -5 -2 -8 -13 -8 -24 0 -12 -11 -36 -25 -55 l-26 -33 -63 63 c-82 80
-125 118 -156 138 -14 9 -49 40 -79 68 -30 28 -57 51 -61 51 -4 0 -21 13 -39
29 -18 16 -52 39 -76 52 l-43 23 -34 -26 -34 -26 2 -128 c1 -71 5 -304 9 -519
4 -214 8 -450 9 -522 4 -182 -8 -173 230 -173 100 0 191 3 204 6 23 7 31 26
10 23 -7 -1 -101 -1 -209 0 l-196 1 -6 223 c-13 406 -9 1089 5 1098 12 8 68
-19 68 -32 0 -4 8 -10 18 -13 9 -3 28 -16 42 -28 14 -13 50 -43 80 -68 30 -25
60 -49 66 -55 6 -5 49 -44 95 -85 102 -92 159 -150 159 -161 0 -20 16 -7 28
24 7 17 20 43 28 57 7 14 26 50 41 80 15 30 30 57 33 60 3 3 14 23 26 45 33
64 105 196 136 248 15 26 28 50 28 53 0 3 7 12 15 21 28 27 58 8 94 -59 51
-96 86 -160 108 -198 11 -19 35 -64 54 -100 18 -36 36 -67 39 -70 10 -8 70
-138 70 -149 0 -22 24 -10 69 37 91 92 203 193 301 269 8 6 39 31 67 56 72 60
100 74 121 60 14 -8 17 -25 16 -89 -1 -44 -5 -337 -10 -651 l-7 -573 -191 -1
c-188 0 -267 -9 -201 -22 17 -3 110 -6 207 -6 232 0 213 -24 222 271 3 123 9
412 12 643 6 419 6 420 -15 443 -32 33 -79 29 -127 -11 -21 -18 -58 -45 -81
-61 -24 -16 -43 -33 -43 -37 0 -5 -6 -9 -13 -9 -7 0 -18 -9 -25 -20 -7 -11
-16 -20 -21 -20 -10 0 -83 -64 -174 -152 -39 -38 -75 -68 -81 -68 -13 1 -56
89 -56 114 0 9 -4 15 -9 12 -5 -3 -23 25 -42 62 -18 37 -39 73 -46 80 -7 7
-13 17 -13 22 0 11 -128 231 -143 246 -16 15 -47 23 -72 17z"/>
<path d="M1464 2258 c-4 -13 -25 -52 -47 -88 -22 -36 -48 -79 -58 -97 -17 -31
-29 -50 -138 -219 l-52 -82 28 -29 c53 -55 98 -108 150 -178 29 -39 57 -75 62
-81 5 -7 22 -35 36 -63 24 -45 55 -68 55 -41 0 25 171 259 244 335 62 63 61
58 17 116 -21 28 -45 64 -52 78 -13 24 -34 59 -131 211 -19 30 -45 78 -59 107
-26 56 -44 66 -55 31z m82 -153 c22 -33 47 -75 55 -92 8 -18 17 -33 20 -33 10
0 49 -69 49 -86 0 -8 5 -12 10 -9 6 3 10 1 10 -5 0 -6 12 -29 26 -52 33 -52
34 -50 -111 -224 -19 -22 -53 -69 -75 -103 -40 -62 -42 -63 -59 -45 -9 11 -33
44 -53 74 -20 30 -44 64 -55 75 -65 68 -133 162 -133 183 0 13 14 41 30 62 17
21 30 43 30 50 0 6 4 9 8 6 5 -3 15 10 22 29 8 19 19 35 26 35 7 0 10 8 7 20
-3 11 0 20 6 20 6 0 11 6 11 14 0 8 7 16 15 20 8 3 14 10 13 15 -2 6 17 41 42
79 41 63 46 67 55 48 6 -12 28 -48 51 -81z"/>
<path d="M1500 1920 c0 -11 11 -38 25 -60 14 -22 25 -42 25 -46 0 -3 -11 -15
-25 -26 -14 -11 -25 -26 -25 -34 0 -8 -3 -14 -7 -14 -11 1 -83 69 -83 78 0 5
11 19 25 32 16 15 25 34 25 54 l0 31 -20 -25 c-38 -49 -52 -88 -39 -112 11
-22 68 -78 80 -78 3 0 15 9 27 20 12 11 25 20 30 20 11 0 29 46 30 77 0 12
-10 33 -24 48 -13 14 -24 33 -24 41 0 7 -4 14 -10 14 -5 0 -10 -9 -10 -20z"/>
<path d="M636 1588 c-4 -310 -9 -573 -12 -585 l-6 -23 191 0 c121 0 191 4 191
10 0 6 -30 10 -67 11 -38 0 -113 1 -168 2 l-100 2 0 155 c0 448 10 863 22 879
10 14 16 12 50 -21 21 -21 44 -38 51 -38 7 0 12 -7 12 -15 0 -8 6 -15 14 -15
8 0 32 -21 53 -46 21 -26 47 -54 57 -63 72 -61 107 -97 112 -115 3 -14 -10
-51 -35 -101 -23 -44 -41 -86 -41 -94 0 -20 48 48 95 133 l37 69 -113 112
c-63 61 -150 142 -194 180 -44 39 -91 82 -105 98 -13 15 -27 27 -31 27 -3 0
-9 -253 -13 -562z"/>
<path d="M2294 2127 c-10 -12 -48 -47 -84 -77 -36 -30 -120 -109 -188 -175
-68 -66 -127 -121 -133 -123 -16 -6 -10 -29 21 -82 16 -28 30 -53 30 -56 0 -2
12 -22 26 -44 25 -38 25 -60 0 -60 -7 0 -30 33 -50 73 -21 40 -46 84 -57 97
-19 25 -19 25 -34 5 -23 -30 -45 -56 -84 -100 -47 -53 -112 -132 -130 -159 -8
-12 -18 -23 -21 -26 -4 -3 -21 -27 -39 -53 l-33 -48 30 -62 c44 -92 55 -134
49 -186 -4 -38 -12 -52 -43 -78 -41 -36 -74 -41 -121 -18 -74 37 -81 135 -20
268 l35 75 -26 39 c-42 62 -164 214 -210 263 -24 25 -50 57 -60 73 -9 15 -21
26 -26 24 -12 -4 -106 -158 -106 -174 0 -6 -9 -15 -20 -18 -11 -4 -18 -11 -15
-16 8 -12 55 20 55 37 0 8 4 14 9 14 5 0 22 20 38 45 15 25 33 45 38 45 13 0
52 -38 85 -81 14 -19 36 -45 50 -59 47 -47 91 -110 85 -120 -3 -5 -1 -10 4
-10 6 0 11 -7 11 -15 0 -8 7 -15 16 -15 12 0 15 -7 12 -25 -3 -14 -2 -25 2
-25 5 0 6 -9 3 -20 -3 -11 -9 -20 -14 -20 -5 0 -9 -9 -9 -20 0 -11 -4 -20 -9
-20 -8 0 -13 -22 -26 -115 -12 -86 68 -171 158 -168 46 2 99 39 123 85 20 39
15 138 -9 187 -9 19 -17 42 -17 52 0 10 -4 21 -10 24 -21 13 -8 54 32 106 23
30 45 56 48 59 3 3 16 20 29 38 12 17 29 32 37 32 8 0 14 7 14 16 0 9 11 27
25 40 14 13 25 26 25 29 0 10 44 44 57 45 6 0 27 -27 45 -60 18 -33 41 -63 50
-66 10 -3 18 -10 18 -15 0 -21 19 -7 34 26 16 33 12 59 -14 85 -14 14 -30 52
-30 70 0 12 -4 18 -10 15 -5 -3 -10 0 -10 9 0 8 -3 21 -6 30 -4 11 -1 16 10
16 9 0 16 7 16 15 0 8 7 15 15 15 8 0 15 7 15 16 0 9 14 21 30 27 19 7 28 17
25 25 -2 7 -1 11 4 8 4 -3 18 8 30 24 12 17 29 30 37 30 11 0 14 6 10 16 -3 8
-2 13 2 10 5 -3 41 26 81 64 40 39 76 70 80 70 5 0 11 -192 15 -427 4 -236 9
-472 12 -525 3 -75 1 -98 -8 -100 -7 0 -82 -2 -165 -3 -132 -2 -156 -4 -173
-20 -11 -10 -20 -23 -20 -29 0 -6 7 -3 14 7 12 15 34 17 201 17 l188 0 -8 428
c-4 235 -9 496 -10 580 -2 84 -5 155 -7 157 -2 3 -13 -5 -24 -18z"/>
<path d="M1472 1228 c-7 -7 -12 -18 -12 -24 0 -7 -9 -28 -20 -47 -11 -18 -23
-53 -26 -78 -5 -36 -2 -49 16 -71 31 -40 81 -39 111 3 26 37 23 71 -15 149
-14 30 -26 60 -26 67 0 16 -12 17 -28 1z m12 -85 c-6 -22 -4 -25 10 -20 12 5
16 0 17 -16 1 -12 3 -37 5 -55 3 -27 0 -34 -19 -41 -37 -15 -56 11 -46 62 7
41 28 97 36 97 2 0 0 -12 -3 -27z"/>
</g>
</svg>
